HIERARCHY
ROOT joint_Root
{
	OFFSET 0.0 0.0 0.0
	CHANNELS 6 Xposition Yposition Zposition Zrotation Xrotation Yrotation 
	JOINT Hips
	{
		OFFSET -17.1583 93.1646 452.98
		CHANNELS 6 Xposition Yposition Zposition Zrotation Xrotation Yrotation 
		JOINT Spine
		{
			OFFSET 15.7357 0.0 0.0
			CHANNELS 6 Xposition Yposition Zposition Zrotation Xrotation Yrotation 
			JOINT Chest
			{
				OFFSET 8.98455 -0.406207 0.0
				CHANNELS 6 Xposition Yposition Zposition Zrotation Xrotation Yrotation 
				JOINT Neck
				{
					OFFSET 16.3773 0.0 0.0
					CHANNELS 6 Xposition Yposition Zposition Zrotation Xrotation Yrotation 
					JOINT Head
					{
						OFFSET 6.45672 0.0 0.0
						CHANNELS 6 Xposition Yposition Zposition Zrotation Xrotation Yrotation 
						End Site
						{
							OFFSET 0.0 0.0 0.0
						}
					}
				}
				JOINT Shoulder_L
				{
					OFFSET 12.9942 -0.242716 4.98039
					CHANNELS 6 Xposition Yposition Zposition Zrotation Xrotation Yrotation 
					JOINT UpperArm_L
					{
						OFFSET 5.34809 0.0 0.0
						CHANNELS 6 Xposition Yposition Zposition Zrotation Xrotation Yrotation 
						JOINT LowerArm_L
						{
							OFFSET 24.3286 1.87007e-05 0.0
							CHANNELS 6 Xposition Yposition Zposition Zrotation Xrotation Yrotation 
							JOINT Hand_L
							{
								OFFSET 22.2916 0.0 0.0
								CHANNELS 6 Xposition Yposition Zposition Zrotation Xrotation Yrotation 
								End Site
								{
									OFFSET 0.0 0.0 0.0
								}
							}
						}
					}
				}
				JOINT Shoulder_R
				{
					OFFSET 12.9945 -0.242716 -4.98039
					CHANNELS 6 Xposition Yposition Zposition Zrotation Xrotation Yrotation 
					JOINT UpperArm_R
					{
						OFFSET -5.34813 0.0 0.0
						CHANNELS 6 Xposition Yposition Zposition Zrotation Xrotation Yrotation 
						JOINT LowerArm_R
						{
							OFFSET -24.3289 0.000322201 0.0
							CHANNELS 6 Xposition Yposition Zposition Zrotation Xrotation Yrotation 
							JOINT Hand_R
							{
								OFFSET -22.2915 -0.000108084 0.0
								CHANNELS 6 Xposition Yposition Zposition Zrotation Xrotation Yrotation 
								End Site
								{
									OFFSET 0.0 0.0 0.0
								}
							}
						}
					}
				}
			}
		}
		JOINT UpperLeg_L
		{
			OFFSET -2.19248 -6.46944 0.0
			CHANNELS 6 Xposition Yposition Zposition Zrotation Xrotation Yrotation 
			JOINT LowerLeg_L
			{
				OFFSET 39.0811 0.0 -1.23785e-05
				CHANNELS 6 Xposition Yposition Zposition Zrotation Xrotation Yrotation 
				JOINT Foot_L
				{
					OFFSET 40.9854 0.0 -1.26872e-05
					CHANNELS 6 Xposition Yposition Zposition Zrotation Xrotation Yrotation 
					JOINT Toes_L
					{
						OFFSET 11.7543 0.0 0.0
						CHANNELS 6 Xposition Yposition Zposition Zrotation Xrotation Yrotation 
						End Site
						{
							OFFSET 0.0 0.0 0.0
						}
					}
				}
			}
		}
		JOINT UpperLeg_R
		{
			OFFSET -2.19251 6.46944 0.0
			CHANNELS 6 Xposition Yposition Zposition Zrotation Xrotation Yrotation 
			JOINT LowerLeg_R
			{
				OFFSET -39.0811 -0.00228153 -0.0401928
				CHANNELS 6 Xposition Yposition Zposition Zrotation Xrotation Yrotation 
				JOINT Foot_R
				{
					OFFSET -40.9854 0.0 0.0
					CHANNELS 6 Xposition Yposition Zposition Zrotation Xrotation Yrotation 
					JOINT Toes_R
					{
						OFFSET -11.7543 0.0 0.0
						CHANNELS 6 Xposition Yposition Zposition Zrotation Xrotation Yrotation 
						End Site
						{
							OFFSET 0.0 0.0 0.0
						}
					}
				}
			}
		}
	}
}
MOTION
Frames:	5
Frame Time:	0.0333333
0.000000 0.000000 0.000000 0.000000 0.000000 -0.000000 -1.822670 93.575900 2.749610 87.949700 2.519740 -6.997920 15.735700 0.000005 -0.000001 -65.540600 88.856600 66.496200 8.984550 -0.406207 -0.000000 -9.838750 -1.089440 1.823450 16.377300 -0.000001 -0.000001 -6.585300 -0.435804 -0.283787 6.456720 -0.000001 -0.000000 -10.668400 -0.834982 -1.135280 12.994200 -0.242716 4.980390 -88.491200 -2.866620 -62.225600 5.348090 -0.000007 -0.000001 -80.368200 -61.489200 -125.157000 24.328600 0.000019 0.000005 0.000046 -7.508960 -0.000000 22.291600 -0.000001 0.000005 56.390500 4.328860 19.344400 12.994500 -0.242716 -4.980390 93.206800 -5.545000 -59.893700 -5.348130 -0.000001 -0.000004 -77.847200 -59.439100 -127.732000 -24.328900 0.000322 -0.000009 -0.001064 -30.214000 -0.000174 -22.291500 -0.000108 -0.000004 47.910700 5.502210 -6.622990 -2.192480 -6.469440 -0.000000 -173.176000 -12.874700 -3.229350 39.081100 -0.000007 -0.000012 -0.020964 0.179945 6.644970 40.985400 -0.000006 -0.000013 -6.788150 16.953600 -64.023100 11.754300 -0.000000 0.000003 -0.004033 0.219415 -7.672000 -2.192510 6.469440 -0.000001 177.895000 14.576300 -179.635000 -39.081100 -0.002282 -0.040193 0.004876 -0.063436 1.374690 -40.985400 0.000008 0.000006 -10.197600 13.394400 -60.723000 -11.754300 -0.000006 -0.000006 -0.011803 0.284318 -5.018430
0.000000 0.000000 0.000000 0.000000 0.000000 -0.000000 -1.830540 93.573600 2.759600 87.954400 2.485980 -6.899510 15.735700 0.000005 -0.000001 -65.202300 88.880900 66.148100 8.984550 -0.406207 -0.000000 -9.789190 -1.079500 1.805100 16.377300 -0.000001 -0.000001 -6.434370 -0.455569 -0.281017 6.456720 -0.000001 -0.000000 -10.572600 -0.917490 -1.082350 12.994200 -0.242716 4.980390 -88.480100 -2.884760 -62.200500 5.348090 -0.000007 -0.000001 -80.393200 -61.216300 -125.389000 24.328600 0.000019 0.000005 0.000061 -7.385820 -0.000000 22.291600 -0.000001 0.000005 56.316800 4.329120 19.340100 12.994500 -0.242716 -4.980390 93.219300 -5.554140 -59.836900 -5.348130 -0.000001 -0.000004 -77.835200 -59.136100 -127.685000 -24.328900 0.000322 -0.000009 -0.001064 -30.172500 -0.000174 -22.291500 -0.000108 -0.000004 47.638000 5.501970 -6.613110 -2.192480 -6.469440 -0.000000 -173.138000 -12.886600 -3.111150 39.081100 -0.000007 -0.000012 -0.021130 0.181195 6.651390 40.985400 -0.000006 -0.000013 -6.950810 16.977100 -63.974800 11.754300 -0.000000 0.000003 -0.003904 0.218067 -7.726910 -2.192510 6.469440 -0.000001 177.857000 14.578100 -179.570000 -39.081100 -0.002282 -0.040193 0.004936 -0.061925 1.464090 -40.985400 0.000008 0.000006 -10.245300 13.473200 -60.734200 -11.754300 -0.000006 -0.000006 -0.011492 0.282136 -5.107760
0.000000 0.000000 0.000000 0.000000 0.000000 -0.000000 -1.850340 93.563500 2.772370 87.931300 2.464050 -6.851760 15.735700 0.000005 -0.000001 -64.726600 88.894000 65.665400 8.984550 -0.406207 -0.000000 -9.757800 -1.083880 1.790930 16.377300 -0.000001 -0.000001 -6.342440 -0.525541 -0.219962 6.456720 -0.000001 -0.000000 -10.502200 -0.993236 -0.984713 12.994200 -0.242716 4.980390 -88.452500 -2.932780 -62.165400 5.348090 -0.000007 -0.000001 -80.381000 -61.020500 -125.547000 24.328600 0.000019 0.000005 0.000046 -7.474200 -0.000000 22.291600 -0.000001 0.000005 55.919000 4.348840 19.032100 12.994500 -0.242716 -4.980390 93.237300 -5.578400 -59.806000 -5.348130 -0.000001 -0.000004 -77.835700 -58.935500 -127.569000 -24.328900 0.000322 -0.000009 -0.001064 -30.138300 -0.000173 -22.291500 -0.000108 -0.000004 47.327000 5.499460 -6.511750 -2.192480 -6.469440 -0.000000 -173.100000 -12.840600 -3.188440 39.081100 -0.000007 -0.000012 -0.022117 0.182333 6.915980 40.985400 -0.000006 -0.000013 -6.926930 16.932600 -64.108000 11.754300 -0.000000 0.000003 -0.003803 0.217006 -7.770110 -2.192510 6.469440 -0.000001 177.880000 14.523000 -179.587000 -39.081100 -0.002282 -0.040193 0.005026 -0.059723 1.604910 -40.985400 0.000008 0.000006 -10.182600 13.426500 -60.853500 -11.754300 -0.000006 -0.000006 -0.011673 0.283405 -5.055810
0.000000 0.000000 0.000000 0.000000 0.000000 -0.000000 -1.862790 93.563500 2.766930 87.928200 2.439570 -6.867860 15.735700 0.000005 -0.000001 -65.078300 88.883900 66.015200 8.984550 -0.406207 -0.000000 -9.781800 -1.079940 1.787260 16.377300 -0.000001 -0.000001 -6.247070 -0.588842 -0.160554 6.456720 -0.000001 -0.000000 -10.450000 -1.106500 -0.889816 12.994200 -0.242716 4.980390 -88.415800 -3.000460 -62.150000 5.348090 -0.000007 -0.000001 -80.274400 -60.828000 -125.473000 24.328600 0.000019 0.000005 0.000046 -6.969180 -0.000000 22.291600 -0.000001 0.000005 55.072800 4.354280 18.946200 12.994500 -0.242716 -4.980390 93.277500 -5.652270 -59.824700 -5.348130 -0.000001 -0.000004 -77.629400 -58.890900 -127.270000 -24.328900 0.000322 -0.000009 -0.001062 -29.948000 -0.000172 -22.291500 -0.000108 -0.000004 47.266400 5.498800 -6.485360 -2.192480 -6.469440 -0.000000 -173.088000 -12.808600 -3.217890 39.081100 -0.000007 -0.000012 -0.022043 0.180730 6.953490 40.985400 -0.000006 -0.000013 -6.972910 16.888600 -64.184700 11.754300 -0.000000 0.000003 -0.003969 0.218746 -7.699250 -2.192510 6.469440 -0.000001 177.894000 14.386300 -179.620000 -39.081100 -0.002282 -0.040193 0.005085 -0.061218 1.621090 -40.985400 0.000008 0.000006 -10.269000 13.324000 -60.834900 -11.754300 -0.000006 -0.000006 -0.011153 0.279726 -5.206440
0.000000 0.000000 0.000000 0.000000 0.000000 -0.000000 -1.858270 93.561200 2.783220 87.950600 2.428600 -6.801990 15.735700 0.000005 -0.000001 -64.912600 88.903000 65.848000 8.984550 -0.406207 -0.000000 -9.744560 -1.069150 1.785660 16.377300 -0.000001 -0.000001 -6.132680 -0.615893 -0.114046 6.456720 -0.000001 -0.000000 -10.477100 -1.159830 -0.839514 12.994200 -0.242716 4.980390 -88.386200 -3.068050 -62.237600 5.348090 -0.000007 -0.000001 -79.652900 -60.864700 -124.845000 24.328600 0.000019 0.000005 0.000046 -6.879610 -0.000000 22.291600 -0.000001 0.000005 54.323300 4.385100 18.459600 12.994500 -0.242716 -4.980390 93.300800 -5.681740 -59.777100 -5.348130 -0.000001 -0.000004 -77.598400 -58.736300 -127.193000 -24.328900 0.000322 -0.000009 -0.001062 -29.881400 -0.000172 -22.291500 -0.000108 -0.000004 47.334400 5.498900 -6.489540 -2.192480 -6.469440 -0.000000 -173.099000 -12.780100 -3.048870 39.081100 -0.000007 -0.000012 -0.020525 0.172164 6.798390 40.985400 -0.000006 -0.000013 -6.875340 16.859800 -64.145500 11.754300 -0.000000 0.000003 -0.003857 0.217571 -7.747100 -2.192510 6.469440 -0.000001 177.847000 14.499000 -179.573000 -39.081100 -0.002282 -0.040193 0.005116 -0.059790 1.688810 -40.985400 0.000008 0.000006 -10.216700 13.443400 -60.891700 -11.754300 -0.000006 -0.000006 -0.011584 0.282785 -5.081180
